<?xml version="1.0" encoding="utf-8"?><svg xmlns="http://www.w3.org/2000/svg" xmlns:xlink="http://www.w3.org/1999/xlink"><symbol viewBox="0 0 24 24" id="angle-right" xmlns="http://www.w3.org/2000/svg"><path d="M10.25 16.25a.74.74 0 01-.53-.25.75.75 0 010-1.06l3-3-3-3A.75.75 0 0110.78 8l3.5 3.5a.75.75 0 010 1.06L10.78 16a.74.74 0 01-.53.25z"/></symbol><symbol viewBox="0 0 504.123 504.123" id="logo" xmlns="http://www.w3.org/2000/svg"><path d="M224.492 0L50.814 100.281l173.678 100.265zM193.331 252.062L19.692 151.812v200.507zM279.631 0v200.523l173.654-100.258zM279.631 303.561v200.562l173.678-100.281zM224.492 303.561L50.79 403.826l173.702 100.297zM310.745 252.054l173.686 100.273V151.78z"/><path d="M193.331 252.062L19.692 265.224v87.095zM310.745 252.054l173.686 100.273v-87.142z"/></symbol></svg>